<svg xmlns="http://www.w3.org/2000/svg" viewBox="0 0 100 100">
  <defs>
    <linearGradient id="g" x1="0%" y1="0%" x2="100%" y2="100%">
      <stop offset="0%" style="stop-color:#6366f1"/>
      <stop offset="100%" style="stop-color:#8b5cf6"/>
    </linearGradient>
  </defs>
  <!-- CPU chip body -->
  <rect x="20" y="20" width="60" height="60" rx="8" fill="url(#g)"/>
  <!-- CPU pins -->
  <rect x="30" y="12" width="6" height="10" rx="1" fill="#6366f1"/>
  <rect x="42" y="12" width="6" height="10" rx="1" fill="#6366f1"/>
  <rect x="54" y="12" width="6" height="10" rx="1" fill="#6366f1"/>
  <rect x="66" y="12" width="6" height="10" rx="1" fill="#6366f1"/>
  <rect x="30" y="78" width="6" height="10" rx="1" fill="#6366f1"/>
  <rect x="42" y="78" width="6" height="10" rx="1" fill="#6366f1"/>
  <rect x="54" y="78" width="6" height="10" rx="1" fill="#6366f1"/>
  <rect x="66" y="78" width="6" height="10" rx="1" fill="#6366f1"/>
  <rect x="12" y="30" width="10" height="6" rx="1" fill="#6366f1"/>
  <rect x="12" y="42" width="10" height="6" rx="1" fill="#6366f1"/>
  <rect x="12" y="54" width="10" height="6" rx="1" fill="#6366f1"/>
  <rect x="12" y="66" width="10" height="6" rx="1" fill="#6366f1"/>
  <rect x="78" y="30" width="10" height="6" rx="1" fill="#6366f1"/>
  <rect x="78" y="42" width="10" height="6" rx="1" fill="#6366f1"/>
  <rect x="78" y="54" width="10" height="6" rx="1" fill="#6366f1"/>
  <rect x="78" y="66" width="10" height="6" rx="1" fill="#6366f1"/>
  <!-- Clock symbol on chip -->
  <circle cx="50" cy="50" r="15" fill="none" stroke="white" stroke-width="2.5"/>
  <line x1="50" y1="50" x2="50" y2="40" stroke="white" stroke-width="2.5" stroke-linecap="round"/>
  <line x1="50" y1="50" x2="58" y2="54" stroke="white" stroke-width="2" stroke-linecap="round"/>
</svg>